# xmcd
#
# Track frame offsets: 
#        150
#        27857
#        50421
#        78279
#        101090
#        125192
#        152222
#        182928
#        206622
#        224992
#        252103
#
# Disc length: 3661 seconds
#
# Revision: 2
# Processed by: cddbd v1.5.2PL0 Copyright (c) Steve Scherf et al.
# Submitted via: ExactAudioCopyFreeDBPlugin 1.0
#
DISCID=a40e4b0b
DTITLE=Cẩm Ly - Dân ca-Buồn con sáo sậu
DYEAR=2006
DGENRE=Vietnamese
TTITLE0=Buồn con sáo sậu
TTITLE1=Bà Năm
TTITLE2=Đêm Gành Hào nghe Điệu Hoài Lang
TTITLE3=Chuyện ngày thơ
TTITLE4=Điệu buồn Lý Xàng xê
TTITLE5=Thương em Lý Miệt vườn
TTITLE6=Huế xưa
TTITLE7=Ru lại vầng trăng
TTITLE8=Chuyện bà Tám
TTITLE9=Chị đi tìm em
TTITLE10=Mẹ tôi
EXTD=
EXTT0=
EXTT1=
EXTT2=
EXTT3=
EXTT4=
EXTT5=
EXTT6=
EXTT7=
EXTT8=
EXTT9=
EXTT10=
PLAYORDER=
